<?xml version="1.0" encoding="UTF-8" standalone="no"?>
<!-- Created with Inkscape (http://www.inkscape.org/) -->

<svg
   version="1.1"
   id="svg2"
   width="337.53333"
   height="486.26666"
   viewBox="0 0 337.53333 486.26666"
   sodipodi:docname="alienware.eps"
   xmlns:inkscape="http://www.inkscape.org/namespaces/inkscape"
   xmlns:sodipodi="http://sodipodi.sourceforge.net/DTD/sodipodi-0.dtd"
   xmlns="http://www.w3.org/2000/svg"
   xmlns:svg="http://www.w3.org/2000/svg">
  <defs
     id="defs6" />
  <sodipodi:namedview
     id="namedview4"
     pagecolor="#ffffff"
     bordercolor="#000000"
     borderopacity="0.25"
     inkscape:showpageshadow="2"
     inkscape:pageopacity="0.0"
     inkscape:pagecheckerboard="0"
     inkscape:deskcolor="#d1d1d1" />
  <g
     id="g8"
     inkscape:groupmode="layer"
     inkscape:label="ink_ext_XXXXXX"
     transform="matrix(1.3333333,0,0,-1.3333333,0,486.26667)">
    <g
       id="g10"
       transform="scale(0.1)">
      <path
         d="m 2371.45,1760.63 c -54.87,-29.04 -154.4,-12.48 -313.59,-69.46 -91.31,-32.68 -214.18,-104.71 -276.28,-158.14 -73.6,-63.33 -133.05,-141.84 -182.46,-222.51 -149.64,-244.36 -203.5,-508.211 -215.17,-537.391 28.58,-3.008 165.71,-14.899 327.72,34.281 131.95,40.039 281.25,127.352 394.97,238.08 103.16,100.46 184.87,236.59 225.57,375.65 42.44,145.04 41.58,291.93 39.24,339.49 z M 932.207,1310.52 c -49.398,80.67 -108.855,159.18 -182.465,222.51 -62.09,53.43 -184.969,125.46 -276.269,158.14 -159.2,56.98 -258.727,40.42 -313.59,69.46 -2.344,-47.56 -3.203,-194.45 39.238,-339.49 40.692,-139.06 122.406,-275.19 225.567,-375.65 113.714,-110.728 263.015,-198.041 394.976,-238.08 162.008,-49.18 299.136,-37.289 327.716,-34.281 -11.67,29.18 -65.53,293.031 -215.173,537.391 z m 1599.083,627.61 c -3.75,-193.75 -55,-466.25 -85,-565 -14.05,-46.24 -82.83,-199.85 -159.97,-336.82 -87.59,-155.501 -183.78,-293.181 -183.78,-293.181 l -262.5,-367.5 c 0,0 -180.24,-229.109 -380.73,-329.1681 C 1399.39,19.7891 1333.69,0.410156 1268.11,0.0117188 1200.53,-0.398438 1133.07,18.9688 1072.17,46.4609 871.684,146.52 691.445,375.629 691.445,375.629 l -262.5,367.5 c 0,0 -96.195,137.68 -183.781,293.181 -77.141,136.97 -145.9218,290.58 -159.9687,336.82 -30,98.75 -81.24999,371.25 -84.999987,565 -2.507813,129.69 19.363287,326.34 48.499987,500.46 14.3945,85.99 32.4492,168.39 46.5,230.79 25.4137,112.86 94.6287,302.86 187.6097,457.94 62.504,104.25 135.75,184.5 213.64,245.81 91.91,72.34 214.848,144.87 341.258,193.24 62.524,23.92 125.535,42.27 182.587,55.26 158.01,32.69 340.23,34.98 490.9,0 57.05,-12.99 120.07,-31.34 182.59,-55.26 126.42,-48.37 249.35,-120.9 341.26,-193.24 77.89,-61.31 151.13,-141.56 213.64,-245.81 92.98,-155.08 162.2,-345.08 187.61,-457.94 14.05,-62.4 32.1,-144.8 46.49,-230.79 29.14,-174.12 51.02,-370.77 48.51,-500.46"
         style="fill:#ccc;fill-opacity:1;fill-rule:evenodd;stroke:none"
         id="path12" />
    </g>
  </g>
</svg>
